<svg width="21" height="18" viewBox="0 0 21 18" fill="none" xmlns="http://www.w3.org/2000/svg">
<path d="M19.7616 4.0001C19.5889 3.70072 19.3414 3.45123 19.0435 3.27597C18.7455 3.10071 18.4073 3.00566 18.0616 3.0001H5.26164L4.68164 0.740098C4.62304 0.521936 4.4923 0.330042 4.31072 0.19567C4.12913 0.061298 3.9074 -0.00763504 3.68164 9.81991e-05H1.68164C1.41642 9.81991e-05 1.16207 0.105455 0.974534 0.292991C0.786997 0.480528 0.681641 0.734882 0.681641 1.0001C0.681641 1.26531 0.786997 1.51967 0.974534 1.7072C1.16207 1.89474 1.41642 2.0001 1.68164 2.0001H2.92164L5.68164 12.2601C5.74024 12.4783 5.87098 12.6702 6.05256 12.8045C6.23415 12.9389 6.45588 13.0078 6.68164 13.0001H15.6816C15.8663 12.9995 16.0472 12.9479 16.2043 12.8508C16.3614 12.7537 16.4885 12.615 16.5716 12.4501L19.8516 5.8901C19.9938 5.59211 20.06 5.26357 20.0443 4.93378C20.0286 4.604 19.9315 4.28323 19.7616 4.0001Z" fill="white"/>
<path d="M6.18164 18C7.01007 18 7.68164 17.3284 7.68164 16.5C7.68164 15.6716 7.01007 15 6.18164 15C5.35321 15 4.68164 15.6716 4.68164 16.5C4.68164 17.3284 5.35321 18 6.18164 18Z" fill="white"/>
<path d="M16.1816 18C17.0101 18 17.6816 17.3284 17.6816 16.5C17.6816 15.6716 17.0101 15 16.1816 15C15.3532 15 14.6816 15.6716 14.6816 16.5C14.6816 17.3284 15.3532 18 16.1816 18Z" fill="white"/>
</svg>
