<svg width="352" height="138" viewBox="0 0 352 138" fill="none" xmlns="http://www.w3.org/2000/svg">
<path d="M19.6816 57H28.7216V0.999996H20.8816V34.52L11.8416 0.999996H0.801641V57H8.72164V16.44L19.6816 57ZM35.0223 57H43.8223V0.999996H35.0223V57ZM70.3366 57H79.3766L67.1366 25.96L79.3766 0.999996H70.5766L59.0566 25.4V0.999996H50.2566V57H59.0566V39.8L61.7766 34.68L70.3366 57ZM92.1816 9H107.382V0.999996H83.3816V57H107.382V49H92.1816V32.6H104.262V24.6H92.1816V9ZM152.617 57C151.737 54.92 151.657 52.92 151.657 50.2V41.56C151.657 35.72 150.217 31.48 145.817 29.64C149.737 27.8 151.577 24.04 151.577 18.28V13.88C151.577 5.24 147.657 0.999996 138.537 0.999996H125.257V57H134.057V34.2H137.097C141.097 34.2 142.857 36.12 142.857 41.32V50.12C142.857 54.68 143.177 55.56 143.657 57H152.617ZM138.297 9C141.417 9 142.777 10.76 142.777 14.76V20.28C142.777 24.76 140.777 26.2 137.497 26.2H134.057V9H138.297ZM166.244 9H181.444V0.999996H157.444V57H181.444V49H166.244V32.6H178.324V24.6H166.244V9ZM206.417 0.999996H193.537L184.577 57H192.657L194.177 46.84H204.977L206.497 57H215.377L206.417 0.999996ZM199.537 10.92L203.777 39.24H195.297L199.537 10.92ZM236.597 36.12V44.12C236.597 48.12 234.837 49.56 232.037 49.56C229.237 49.56 227.477 48.12 227.477 44.12V13.88C227.477 9.88 229.237 8.36 232.037 8.36C234.837 8.36 236.597 9.88 236.597 13.88V19.88H244.917V14.44C244.917 5.48 240.437 0.36 231.797 0.36C223.157 0.36 218.677 5.48 218.677 14.44V43.56C218.677 52.52 223.157 57.64 231.797 57.64C240.437 57.64 244.917 52.52 244.917 43.56V36.12H236.597ZM247.697 9H256.897V57H265.697V9H274.897V0.999996H247.697V9Z" fill="#FA804C"/>
<path d="M0.881641 137H9.68164V81H0.881641V137ZM34.916 137H43.956V81H36.116V114.52L27.076 81H16.036V137H23.956V96.44L34.916 137ZM59.0566 89H73.5366V81H50.2566V137H59.0566V113.88H70.4166V105.88H59.0566V89ZM77.7566 137H86.5566V81H77.7566V137ZM111.791 137H120.831V81H112.991V114.52L103.951 81H92.911V137H100.831V96.44L111.791 137ZM127.132 137H135.932V81H127.132V137ZM139.806 89H149.006V137H157.806V89H167.006V81H139.806V89ZM179.122 137H187.922V118.44L199.042 81H190.642L183.922 106.52L177.202 81H168.002L179.122 118.44V137ZM242.382 137C241.502 134.92 241.422 132.92 241.422 130.2V121.56C241.422 115.72 239.982 111.48 235.582 109.64C239.502 107.8 241.342 104.04 241.342 98.28V93.88C241.342 85.24 237.422 81 228.302 81H215.022V137H223.822V114.2H226.862C230.862 114.2 232.622 116.12 232.622 121.32V130.12C232.622 134.68 232.942 135.56 233.422 137H242.382ZM228.062 89C231.182 89 232.542 90.76 232.542 94.76V100.28C232.542 104.76 230.542 106.2 227.262 106.2H223.822V89H228.062ZM246.81 81V123.64C246.81 132.6 251.29 137.72 259.93 137.72C268.57 137.72 273.05 132.6 273.05 123.64V81H264.73V124.2C264.73 128.2 262.97 129.64 260.17 129.64C257.37 129.64 255.61 128.2 255.61 124.2V81H246.81ZM297.885 137H306.925V81H299.085V114.52L290.045 81H279.005V137H286.925V96.44L297.885 137ZM343.087 94.76C343.087 110.92 325.647 113.64 325.647 130.12V137H351.087V129H334.447C334.367 128.6 334.367 128.2 334.367 127.8C334.367 118.6 351.887 112.04 351.887 94.44C351.887 85.48 347.407 80.36 338.767 80.36C330.127 80.36 325.647 85.48 325.647 94.44V99.88H333.967V93.88C333.967 89.88 335.727 88.36 338.527 88.36C341.327 88.36 343.087 89.72 343.087 94.76Z" fill="#363958"/>
</svg>
