<svg width="172" height="245" viewBox="0 0 172 245" fill="none" xmlns="http://www.w3.org/2000/svg">
<path d="M78.4445 90.6091H5.53383C4.11809 90.6091 2.98547 89.3407 2.98547 87.755V6.09509C2.98547 4.50946 4.11809 3.24097 5.53383 3.24097H78.4445C79.8602 3.24097 80.9928 4.50946 80.9928 6.09509V87.755C80.9928 89.3407 79.8602 90.6091 78.4445 90.6091Z" fill="#85B8ED"/>
<path d="M75.6156 87.4368H2.70492C1.28917 87.4368 0.156555 86.1683 0.156555 84.5827V2.92273C0.156555 1.3371 1.28917 0.0686035 2.70492 0.0686035H75.6156C77.0313 0.0686035 78.1639 1.3371 78.1639 2.92273V84.5827C78.1639 86.1683 77.0313 87.4368 75.6156 87.4368Z" fill="#FFFFF8"/>
<path d="M2.43958 104.638C2.22189 104.618 2.0178 104.584 1.82732 104.536C1.64364 104.482 1.47356 104.424 1.3171 104.362C1.16743 104.301 1.03478 104.243 0.919126 104.189C0.810279 104.128 0.728644 104.08 0.674221 104.046L1.11301 103.148C1.16063 103.182 1.24227 103.23 1.35792 103.291C1.47356 103.352 1.60282 103.417 1.74568 103.485C1.89535 103.546 2.04841 103.601 2.20488 103.648C2.36135 103.696 2.50761 103.72 2.64367 103.72C3.32396 103.72 3.66411 103.437 3.66411 102.873C3.66411 102.737 3.6403 102.624 3.59268 102.536C3.55186 102.447 3.48723 102.373 3.39879 102.311C3.31716 102.243 3.21511 102.186 3.09266 102.138C2.97701 102.083 2.84435 102.029 2.69469 101.975C2.40897 101.866 2.15386 101.754 1.92936 101.638C1.71167 101.515 1.52459 101.379 1.36812 101.23C1.21165 101.08 1.0926 100.91 1.01097 100.72C0.929331 100.529 0.888513 100.311 0.888513 100.066C0.888513 99.8759 0.925929 99.6923 1.00076 99.5154C1.07559 99.3385 1.18104 99.182 1.3171 99.046C1.45316 98.9031 1.61643 98.7841 1.80691 98.6888C1.99739 98.5868 2.20828 98.5154 2.43958 98.4745V97.6684H3.27634V98.4541C3.45322 98.4745 3.62329 98.5052 3.78656 98.546C3.94983 98.5868 4.09609 98.631 4.22535 98.6786C4.3546 98.7263 4.46345 98.7739 4.55189 98.8215C4.64713 98.8623 4.71516 98.8929 4.75598 98.9133L4.3478 99.7501C4.29338 99.7229 4.21514 99.6889 4.1131 99.648C4.01786 99.6004 3.90901 99.5528 3.78656 99.5052C3.66411 99.4576 3.53145 99.4167 3.38859 99.3827C3.24573 99.3487 3.10287 99.3317 2.96 99.3317C2.7287 99.3317 2.52122 99.3793 2.33754 99.4746C2.16066 99.563 2.07222 99.7161 2.07222 99.9338C2.07222 100.07 2.09603 100.192 2.14365 100.301C2.19808 100.403 2.27291 100.495 2.36815 100.577C2.47019 100.658 2.59265 100.737 2.73551 100.811C2.88517 100.879 3.05525 100.947 3.24573 101.015C3.49744 101.117 3.72193 101.223 3.91922 101.332C4.1165 101.441 4.28317 101.563 4.41923 101.699C4.55529 101.835 4.65733 101.992 4.72536 102.169C4.8002 102.345 4.83761 102.553 4.83761 102.791C4.83761 102.995 4.8036 103.192 4.73557 103.383C4.67434 103.573 4.5757 103.75 4.43964 103.913C4.31039 104.077 4.14711 104.22 3.94983 104.342C3.75935 104.458 3.53485 104.543 3.27634 104.597V105.597H2.43958V104.638ZM6.11882 101.464L6.46577 98.25H9.81281L9.64954 99.1786H7.48621L7.27192 100.822C7.32634 100.788 7.43179 100.747 7.58825 100.699C7.74472 100.651 7.98282 100.628 8.30256 100.628C8.58828 100.628 8.84339 100.682 9.06789 100.791C9.29919 100.893 9.49307 101.036 9.64954 101.22C9.81281 101.403 9.93526 101.617 10.0169 101.862C10.1053 102.107 10.1496 102.369 10.1496 102.648C10.1496 102.913 10.1121 103.179 10.0373 103.444C9.96247 103.703 9.84002 103.934 9.66995 104.138C9.49988 104.342 9.27878 104.509 9.00666 104.638C8.74135 104.76 8.41481 104.822 8.02704 104.822C7.66649 104.822 7.30933 104.771 6.95558 104.669C6.60863 104.567 6.26168 104.437 5.91473 104.281L6.26168 103.434C6.57462 103.57 6.84673 103.686 7.07803 103.781C7.31614 103.876 7.55764 103.924 7.80255 103.924C8.19711 103.924 8.47603 103.818 8.63931 103.607C8.80938 103.39 8.89441 103.067 8.89441 102.638C8.89441 102.277 8.79917 102.005 8.60869 101.822C8.42501 101.631 8.18011 101.536 7.87398 101.536C7.66989 101.536 7.49301 101.549 7.34335 101.577C7.19368 101.604 7.06443 101.635 6.95558 101.669C6.85354 101.703 6.7719 101.737 6.71068 101.771C6.65625 101.798 6.61884 101.815 6.59843 101.822L6.11882 101.464ZM12.0352 103.322C12.2733 103.322 12.4536 103.393 12.576 103.536C12.7053 103.679 12.7699 103.862 12.7699 104.087C12.7699 104.305 12.7053 104.488 12.576 104.638C12.4468 104.788 12.2563 104.862 12.0046 104.862C11.7665 104.862 11.5828 104.788 11.4536 104.638C11.3243 104.488 11.2597 104.311 11.2597 104.107C11.2597 103.89 11.3243 103.706 11.4536 103.556C11.5828 103.4 11.7767 103.322 12.0352 103.322ZM14.5307 103.73C14.6872 103.784 14.8539 103.828 15.0308 103.862C15.2076 103.896 15.3845 103.913 15.5614 103.913C15.8539 103.913 16.092 103.859 16.2757 103.75C16.4662 103.641 16.6158 103.495 16.7247 103.311C16.8335 103.121 16.9084 102.903 16.9492 102.658C16.9968 102.407 17.024 102.141 17.0308 101.862C16.9764 101.93 16.905 102.002 16.8165 102.077C16.7349 102.152 16.6363 102.22 16.5206 102.281C16.4118 102.342 16.2859 102.393 16.143 102.434C16.0002 102.475 15.8403 102.495 15.6634 102.495C15.0648 102.495 14.5954 102.311 14.2552 101.944C13.9151 101.57 13.745 101.046 13.745 100.373C13.745 100.066 13.7926 99.7841 13.8879 99.5256C13.9899 99.2603 14.1362 99.0324 14.3267 98.8419C14.5171 98.6446 14.7518 98.4916 15.0308 98.3827C15.3165 98.2739 15.643 98.2194 16.0104 98.2194C16.439 98.2194 16.7961 98.3011 17.0818 98.4643C17.3744 98.6276 17.6091 98.8555 17.7859 99.148C17.9628 99.4406 18.0887 99.7909 18.1635 100.199C18.2383 100.6 18.2758 101.043 18.2758 101.526C18.2758 101.961 18.2247 102.379 18.1227 102.781C18.0206 103.175 17.8574 103.522 17.6329 103.822C17.4152 104.121 17.1329 104.362 16.7859 104.546C16.439 104.723 16.0172 104.811 15.5206 104.811C15.2689 104.811 15.0308 104.784 14.8063 104.73C14.5886 104.675 14.3913 104.611 14.2144 104.536L14.5307 103.73ZM15.8879 101.617C16.024 101.617 16.1566 101.597 16.2859 101.556C16.4152 101.515 16.5308 101.468 16.6328 101.413C16.7349 101.359 16.8199 101.308 16.888 101.26C16.9628 101.206 17.0104 101.172 17.0308 101.158C17.0104 100.451 16.9152 99.9304 16.7451 99.597C16.575 99.2569 16.2995 99.0868 15.9185 99.0868C15.5716 99.0868 15.3199 99.2059 15.1634 99.444C15.007 99.6821 14.9287 99.9882 14.9287 100.362C14.9287 100.539 14.9457 100.706 14.9797 100.862C15.0138 101.012 15.0682 101.145 15.143 101.26C15.2178 101.369 15.3165 101.458 15.4389 101.526C15.5614 101.587 15.7111 101.617 15.8879 101.617ZM19.8721 103.73C20.0286 103.784 20.1952 103.828 20.3721 103.862C20.549 103.896 20.7259 103.913 20.9027 103.913C21.1953 103.913 21.4334 103.859 21.6171 103.75C21.8075 103.641 21.9572 103.495 22.066 103.311C22.1749 103.121 22.2497 102.903 22.2905 102.658C22.3382 102.407 22.3654 102.141 22.3722 101.862C22.3178 101.93 22.2463 102.002 22.1579 102.077C22.0763 102.152 21.9776 102.22 21.862 102.281C21.7531 102.342 21.6273 102.393 21.4844 102.434C21.3415 102.475 21.1817 102.495 21.0048 102.495C20.4061 102.495 19.9367 102.311 19.5966 101.944C19.2564 101.57 19.0864 101.046 19.0864 100.373C19.0864 100.066 19.134 99.7841 19.2292 99.5256C19.3313 99.2603 19.4775 99.0324 19.668 98.8419C19.8585 98.6446 20.0932 98.4916 20.3721 98.3827C20.6578 98.2739 20.9844 98.2194 21.3517 98.2194C21.7803 98.2194 22.1375 98.3011 22.4232 98.4643C22.7157 98.6276 22.9504 98.8555 23.1273 99.148C23.3042 99.4406 23.43 99.7909 23.5049 100.199C23.5797 100.6 23.6171 101.043 23.6171 101.526C23.6171 101.961 23.5661 102.379 23.4641 102.781C23.362 103.175 23.1987 103.522 22.9742 103.822C22.7565 104.121 22.4742 104.362 22.1273 104.546C21.7803 104.723 21.3585 104.811 20.8619 104.811C20.6102 104.811 20.3721 104.784 20.1476 104.73C19.9299 104.675 19.7326 104.611 19.5558 104.536L19.8721 103.73ZM21.2293 101.617C21.3653 101.617 21.498 101.597 21.6273 101.556C21.7565 101.515 21.8722 101.468 21.9742 101.413C22.0763 101.359 22.1613 101.308 22.2293 101.26C22.3042 101.206 22.3518 101.172 22.3722 101.158C22.3518 100.451 22.2565 99.9304 22.0865 99.597C21.9164 99.2569 21.6409 99.0868 21.2599 99.0868C20.913 99.0868 20.6612 99.2059 20.5048 99.444C20.3483 99.6821 20.2701 99.9882 20.2701 100.362C20.2701 100.539 20.2871 100.706 20.3211 100.862C20.3551 101.012 20.4095 101.145 20.4844 101.26C20.5592 101.369 20.6578 101.458 20.7803 101.526C20.9027 101.587 21.0524 101.617 21.2293 101.617Z" fill="#042776"/>
<path d="M65.4196 115.344H78.3029C79.1523 115.344 79.8602 114.551 79.8602 113.6V98.5364C79.8602 97.585 79.1523 96.7922 78.3029 96.7922H65.4196C64.5702 96.7922 63.8623 97.585 63.8623 98.5364V113.6C63.8623 114.551 64.5702 115.344 65.4196 115.344Z" fill="#85B8ED"/>
<path d="M63.8637 113.6H76.7469C77.5964 113.6 78.3043 112.807 78.3043 111.856V96.7923C78.3043 95.8409 77.5964 95.0481 76.7469 95.0481H63.8637C63.0142 95.0481 62.3064 95.8409 62.3064 96.7923V111.856C62.3064 112.807 63.0142 113.6 63.8637 113.6Z" fill="#EA5E5D"/>
<path d="M71.5084 109.953H66.5533V100.439H74.0568V107.257" stroke="white" stroke-width="0.54666" stroke-miterlimit="10"/>
<path d="M68.3931 102.659C68.7058 102.659 68.9594 102.375 68.9594 102.024C68.9594 101.674 68.7058 101.39 68.3931 101.39C68.0803 101.39 67.8268 101.674 67.8268 102.024C67.8268 102.375 68.0803 102.659 68.3931 102.659Z" fill="white"/>
<path d="M71.5089 102.024C71.5089 101.707 71.7921 101.39 72.0752 101.39C72.3583 101.39 72.6415 101.707 72.6415 102.024C72.6415 102.342 72.3583 102.659 72.0752 102.659C71.7921 102.659 71.5089 102.342 71.5089 102.024Z" fill="white"/>
<path d="M68.3943 101.708V99.4878C68.3943 98.3779 69.2437 97.4265 70.2347 97.4265C71.2258 97.4265 72.0752 98.3779 72.0752 99.4878V101.708" stroke="white" stroke-width="0.364406" stroke-miterlimit="10"/>
<path d="M74.058 109.952V107.891" stroke="white" stroke-width="0.54666" stroke-miterlimit="10"/>
<path d="M74.0575 112.014V109.952" stroke="white" stroke-width="0.54666" stroke-miterlimit="10"/>
<path d="M74.0575 109.952H72.217" stroke="white" stroke-width="0.54666" stroke-miterlimit="10"/>
<path d="M75.8979 109.952H74.0575" stroke="white" stroke-width="0.54666" stroke-miterlimit="10"/>
<path d="M39.2286 68.7262H58.7659L57.2086 32.891L63.8625 41.9291L72.7817 31.3054C72.7817 31.3054 61.1726 15.4491 59.1906 14.022C57.067 12.7535 47.7231 11.9607 47.7231 11.9607C47.5815 15.2905 45.1747 20.8402 39.2286 20.8402C33.2825 20.8402 31.0173 15.2905 30.7342 11.9607C30.7342 11.9607 21.2487 12.7535 19.2667 14.022C17.1431 15.2905 5.6756 31.3054 5.6756 31.3054L14.5947 41.9291L21.2487 32.891L19.6914 68.7262H39.2286Z" fill="#85B8ED"/>
<path d="M168.487 219.679H95.5761C94.1603 219.679 93.0277 218.41 93.0277 216.825V135.165C93.0277 133.579 94.1603 132.311 95.5761 132.311H168.487C169.902 132.311 171.035 133.579 171.035 135.165V216.825C171.177 218.252 169.902 219.679 168.487 219.679Z" fill="#85B8ED"/>
<path d="M165.654 216.348H92.7436C91.3278 216.348 90.1952 215.08 90.1952 213.494V131.834C90.1952 130.248 91.3278 128.98 92.7436 128.98H165.654C167.07 128.98 168.203 130.248 168.203 131.834V213.494C168.203 215.08 167.07 216.348 165.654 216.348Z" fill="#FFFFF8"/>
<path d="M92.5019 233.557C92.2842 233.536 92.0801 233.502 91.8896 233.455C91.706 233.4 91.5359 233.342 91.3794 233.281C91.2298 233.22 91.0971 233.162 90.9814 233.108C90.8726 233.046 90.791 232.999 90.7365 232.965L91.1753 232.067C91.2229 232.101 91.3046 232.148 91.4202 232.21C91.5359 232.271 91.6651 232.336 91.808 232.404C91.9577 232.465 92.1107 232.519 92.2672 232.567C92.4237 232.614 92.5699 232.638 92.706 232.638C93.3863 232.638 93.7264 232.356 93.7264 231.791C93.7264 231.655 93.7026 231.543 93.655 231.455C93.6142 231.366 93.5495 231.291 93.4611 231.23C93.3795 231.162 93.2774 231.104 93.155 231.057C93.0393 231.002 92.9067 230.948 92.757 230.893C92.4713 230.785 92.2162 230.672 91.9917 230.557C91.774 230.434 91.5869 230.298 91.4304 230.148C91.274 229.999 91.1549 229.829 91.0733 229.638C90.9916 229.448 90.9508 229.23 90.9508 228.985C90.9508 228.795 90.9882 228.611 91.0631 228.434C91.1379 228.257 91.2434 228.101 91.3794 227.965C91.5155 227.822 91.6787 227.703 91.8692 227.608C92.0597 227.505 92.2706 227.434 92.5019 227.393V226.587H93.3387V227.373C93.5155 227.393 93.6856 227.424 93.8489 227.465C94.0121 227.505 94.1584 227.55 94.2877 227.597C94.4169 227.645 94.5258 227.693 94.6142 227.74C94.7094 227.781 94.7775 227.812 94.8183 227.832L94.4101 228.669C94.3557 228.642 94.2775 228.608 94.1754 228.567C94.0802 228.519 93.9713 228.472 93.8489 228.424C93.7264 228.376 93.5938 228.335 93.4509 228.301C93.308 228.267 93.1652 228.25 93.0223 228.25C92.791 228.25 92.5835 228.298 92.3999 228.393C92.223 228.482 92.1345 228.635 92.1345 228.852C92.1345 228.989 92.1583 229.111 92.206 229.22C92.2604 229.322 92.3352 229.414 92.4305 229.495C92.5325 229.577 92.655 229.655 92.7978 229.73C92.9475 229.798 93.1176 229.866 93.308 229.934C93.5598 230.036 93.7842 230.142 93.9815 230.25C94.1788 230.359 94.3455 230.482 94.4815 230.618C94.6176 230.754 94.7197 230.91 94.7877 231.087C94.8625 231.264 94.8999 231.472 94.8999 231.71C94.8999 231.914 94.8659 232.111 94.7979 232.302C94.7367 232.492 94.638 232.669 94.502 232.832C94.3727 232.995 94.2094 233.138 94.0121 233.261C93.8217 233.376 93.5972 233.461 93.3387 233.516V234.516H92.5019V233.557ZM98.5792 231.873H95.7219V231.22L97.5791 227.169H98.7731L96.9873 230.995H98.5792V228.914L99.7323 228.71V230.995H100.722L100.559 231.873H99.7323V233.669H98.5792V231.873ZM102.267 232.24C102.505 232.24 102.685 232.312 102.808 232.455C102.937 232.597 103.002 232.781 103.002 233.006C103.002 233.223 102.937 233.407 102.808 233.557C102.679 233.706 102.488 233.781 102.236 233.781C101.998 233.781 101.815 233.706 101.685 233.557C101.556 233.407 101.491 233.23 101.491 233.026C101.491 232.808 101.556 232.625 101.685 232.475C101.815 232.319 102.008 232.24 102.267 232.24ZM104.762 232.649C104.919 232.703 105.086 232.747 105.262 232.781C105.439 232.815 105.616 232.832 105.793 232.832C106.086 232.832 106.324 232.778 106.507 232.669C106.698 232.56 106.848 232.414 106.956 232.23C107.065 232.04 107.14 231.822 107.181 231.577C107.229 231.325 107.256 231.06 107.263 230.781C107.208 230.849 107.137 230.921 107.048 230.995C106.967 231.07 106.868 231.138 106.752 231.199C106.643 231.261 106.518 231.312 106.375 231.353C106.232 231.393 106.072 231.414 105.895 231.414C105.297 231.414 104.827 231.23 104.487 230.863C104.147 230.489 103.977 229.965 103.977 229.291C103.977 228.985 104.024 228.703 104.12 228.444C104.222 228.179 104.368 227.951 104.558 227.761C104.749 227.563 104.984 227.41 105.262 227.301C105.548 227.193 105.875 227.138 106.242 227.138C106.671 227.138 107.028 227.22 107.314 227.383C107.606 227.546 107.841 227.774 108.018 228.067C108.195 228.359 108.32 228.71 108.395 229.118C108.47 229.519 108.507 229.961 108.507 230.444C108.507 230.88 108.456 231.298 108.354 231.699C108.252 232.094 108.089 232.441 107.865 232.74C107.647 233.04 107.365 233.281 107.018 233.465C106.671 233.642 106.249 233.73 105.752 233.73C105.501 233.73 105.262 233.703 105.038 233.649C104.82 233.594 104.623 233.529 104.446 233.455L104.762 232.649ZM106.12 230.536C106.256 230.536 106.388 230.516 106.518 230.475C106.647 230.434 106.763 230.387 106.865 230.332C106.967 230.278 107.052 230.227 107.12 230.179C107.195 230.125 107.242 230.091 107.263 230.077C107.242 229.369 107.147 228.849 106.977 228.516C106.807 228.176 106.531 228.006 106.15 228.006C105.803 228.006 105.552 228.125 105.395 228.363C105.239 228.601 105.16 228.907 105.16 229.281C105.16 229.458 105.177 229.625 105.211 229.781C105.245 229.931 105.3 230.063 105.375 230.179C105.45 230.288 105.548 230.376 105.671 230.444C105.793 230.506 105.943 230.536 106.12 230.536ZM110.104 232.649C110.26 232.703 110.427 232.747 110.604 232.781C110.781 232.815 110.958 232.832 111.134 232.832C111.427 232.832 111.665 232.778 111.849 232.669C112.039 232.56 112.189 232.414 112.298 232.23C112.407 232.04 112.481 231.822 112.522 231.577C112.57 231.325 112.597 231.06 112.604 230.781C112.549 230.849 112.478 230.921 112.39 230.995C112.308 231.07 112.209 231.138 112.094 231.199C111.985 231.261 111.859 231.312 111.716 231.353C111.573 231.393 111.413 231.414 111.237 231.414C110.638 231.414 110.168 231.23 109.828 230.863C109.488 230.489 109.318 229.965 109.318 229.291C109.318 228.985 109.366 228.703 109.461 228.444C109.563 228.179 109.709 227.951 109.9 227.761C110.09 227.563 110.325 227.41 110.604 227.301C110.89 227.193 111.216 227.138 111.583 227.138C112.012 227.138 112.369 227.22 112.655 227.383C112.947 227.546 113.182 227.774 113.359 228.067C113.536 228.359 113.662 228.71 113.737 229.118C113.811 229.519 113.849 229.961 113.849 230.444C113.849 230.88 113.798 231.298 113.696 231.699C113.594 232.094 113.43 232.441 113.206 232.74C112.988 233.04 112.706 233.281 112.359 233.465C112.012 233.642 111.59 233.73 111.094 233.73C110.842 233.73 110.604 233.703 110.379 233.649C110.162 233.594 109.964 233.529 109.787 233.455L110.104 232.649ZM111.461 230.536C111.597 230.536 111.73 230.516 111.859 230.475C111.988 230.434 112.104 230.387 112.206 230.332C112.308 230.278 112.393 230.227 112.461 230.179C112.536 230.125 112.583 230.091 112.604 230.077C112.583 229.369 112.488 228.849 112.318 228.516C112.148 228.176 111.873 228.006 111.492 228.006C111.145 228.006 110.893 228.125 110.737 228.363C110.58 228.601 110.502 228.907 110.502 229.281C110.502 229.458 110.519 229.625 110.553 229.781C110.587 229.931 110.641 230.063 110.716 230.179C110.791 230.288 110.89 230.376 111.012 230.444C111.134 230.506 111.284 230.536 111.461 230.536Z" fill="#042776"/>
<path d="M155.461 244.256H168.344C169.193 244.256 169.901 243.463 169.901 242.512V227.448C169.901 226.497 169.193 225.704 168.344 225.704H155.461C154.611 225.704 153.903 226.497 153.903 227.448V242.512C153.903 243.463 154.611 244.256 155.461 244.256Z" fill="#85B8ED"/>
<path d="M153.904 242.511H166.787C167.636 242.511 168.344 241.718 168.344 240.767V225.703C168.344 224.752 167.636 223.959 166.787 223.959H153.904C153.054 223.959 152.346 224.752 152.346 225.703V240.767C152.346 241.718 153.054 242.511 153.904 242.511Z" fill="#EA5E5D"/>
<path d="M161.548 238.865H156.593V229.352H164.097V236.17" stroke="white" stroke-width="0.54666" stroke-miterlimit="10"/>
<path d="M158.01 230.936C158.01 230.619 158.293 230.302 158.576 230.302C158.859 230.302 159.143 230.619 159.143 230.936C159.143 231.254 158.859 231.571 158.576 231.571C158.151 231.571 158.01 231.254 158.01 230.936Z" fill="white"/>
<path d="M161.549 230.936C161.549 230.619 161.832 230.302 162.115 230.302C162.398 230.302 162.681 230.619 162.681 230.936C162.681 231.254 162.398 231.571 162.115 231.571C161.832 231.571 161.549 231.254 161.549 230.936Z" fill="white"/>
<path d="M158.434 230.619V228.399C158.434 227.289 159.284 226.338 160.275 226.338C161.266 226.338 162.115 227.289 162.115 228.399V230.619" stroke="white" stroke-width="0.364406" stroke-miterlimit="10"/>
<path d="M164.097 238.865V236.803" stroke="white" stroke-width="0.54666" stroke-miterlimit="10"/>
<path d="M164.097 240.926V238.865" stroke="white" stroke-width="0.54666" stroke-miterlimit="10"/>
<path d="M164.096 238.865H162.256" stroke="white" stroke-width="0.54666" stroke-miterlimit="10"/>
<path d="M165.938 238.865H164.097" stroke="white" stroke-width="0.54666" stroke-miterlimit="10"/>
<path d="M129.27 197.638H148.807L147.25 161.803L153.904 170.841L162.823 160.217C162.823 160.217 151.214 144.361 149.232 142.934C147.25 141.507 137.764 140.873 137.764 140.873C137.623 144.203 135.216 149.752 129.27 149.752C123.324 149.752 121.058 144.203 120.775 140.873C120.775 140.873 111.29 141.666 109.308 142.934C107.184 144.203 95.7167 160.217 95.7167 160.217L104.636 170.841L111.29 161.803L109.733 197.638H129.27Z" fill="#3ED9C7"/>
<path d="M168.487 90.6089H95.5761C94.1603 90.6089 93.0277 89.3404 93.0277 87.7548V6.09485C93.0277 4.50922 94.1603 3.24072 95.5761 3.24072H168.487C169.902 3.24072 171.035 4.50922 171.035 6.09485V87.7548C171.177 89.3404 169.902 90.6089 168.487 90.6089Z" fill="#85B8ED"/>
<path d="M165.654 87.4368H92.7436C91.3278 87.4368 90.1952 86.1683 90.1952 84.5827V2.92273C90.1952 1.3371 91.3278 0.0686035 92.7436 0.0686035H165.654C167.07 0.0686035 168.203 1.3371 168.203 2.92273V84.5827C168.203 86.1683 167.07 87.4368 165.654 87.4368Z" fill="#FFFFF8"/>
<path d="M92.5019 104.638C92.2842 104.618 92.0801 104.584 91.8896 104.536C91.706 104.482 91.5359 104.424 91.3794 104.362C91.2298 104.301 91.0971 104.243 90.9814 104.189C90.8726 104.128 90.791 104.08 90.7365 104.046L91.1753 103.148C91.2229 103.182 91.3046 103.23 91.4202 103.291C91.5359 103.352 91.6651 103.417 91.808 103.485C91.9577 103.546 92.1107 103.601 92.2672 103.648C92.4237 103.696 92.5699 103.72 92.706 103.72C93.3863 103.72 93.7264 103.437 93.7264 102.873C93.7264 102.737 93.7026 102.624 93.655 102.536C93.6142 102.447 93.5495 102.373 93.4611 102.311C93.3795 102.243 93.2774 102.186 93.155 102.138C93.0393 102.083 92.9067 102.029 92.757 101.975C92.4713 101.866 92.2162 101.754 91.9917 101.638C91.774 101.515 91.5869 101.379 91.4304 101.23C91.274 101.08 91.1549 100.91 91.0733 100.72C90.9916 100.529 90.9508 100.311 90.9508 100.066C90.9508 99.8759 90.9882 99.6923 91.0631 99.5154C91.1379 99.3385 91.2434 99.182 91.3794 99.046C91.5155 98.9031 91.6787 98.7841 91.8692 98.6888C92.0597 98.5868 92.2706 98.5154 92.5019 98.4745V97.6684H93.3387V98.4541C93.5155 98.4745 93.6856 98.5052 93.8489 98.546C94.0121 98.5868 94.1584 98.631 94.2877 98.6786C94.4169 98.7263 94.5258 98.7739 94.6142 98.8215C94.7094 98.8623 94.7775 98.8929 94.8183 98.9133L94.4101 99.7501C94.3557 99.7229 94.2775 99.6889 94.1754 99.648C94.0802 99.6004 93.9713 99.5528 93.8489 99.5052C93.7264 99.4576 93.5938 99.4167 93.4509 99.3827C93.308 99.3487 93.1652 99.3317 93.0223 99.3317C92.791 99.3317 92.5835 99.3793 92.3999 99.4746C92.223 99.563 92.1345 99.7161 92.1345 99.9338C92.1345 100.07 92.1583 100.192 92.206 100.301C92.2604 100.403 92.3352 100.495 92.4305 100.577C92.5325 100.658 92.655 100.737 92.7978 100.811C92.9475 100.879 93.1176 100.947 93.308 101.015C93.5598 101.117 93.7842 101.223 93.9815 101.332C94.1788 101.441 94.3455 101.563 94.4815 101.699C94.6176 101.835 94.7197 101.992 94.7877 102.169C94.8625 102.345 94.8999 102.553 94.8999 102.791C94.8999 102.995 94.8659 103.192 94.7979 103.383C94.7367 103.573 94.638 103.75 94.502 103.913C94.3727 104.077 94.2094 104.22 94.0121 104.342C93.8217 104.458 93.5972 104.543 93.3387 104.597V105.597H92.5019V104.638ZM98.4261 98.25V104.75H97.2628V99.6072C97.0519 99.8045 96.8342 99.9814 96.6097 100.138C96.3852 100.288 96.1743 100.39 95.977 100.444L95.5179 99.6072C95.6811 99.5392 95.8444 99.4712 96.0077 99.4031C96.1709 99.3283 96.3342 99.2399 96.4975 99.1378C96.6607 99.0358 96.8274 98.9167 96.9975 98.7807C97.1744 98.6378 97.3614 98.4609 97.5587 98.25H98.4261ZM102.383 98.199C102.805 98.199 103.162 98.2705 103.454 98.4133C103.754 98.5562 103.999 98.7637 104.189 99.0358C104.38 99.3079 104.516 99.6446 104.597 100.046C104.686 100.447 104.73 100.903 104.73 101.413C104.73 101.924 104.682 102.386 104.587 102.801C104.499 103.216 104.352 103.573 104.148 103.873C103.951 104.172 103.696 104.403 103.383 104.567C103.07 104.73 102.693 104.811 102.25 104.811C101.829 104.811 101.468 104.74 101.169 104.597C100.876 104.454 100.635 104.247 100.444 103.975C100.254 103.696 100.114 103.356 100.026 102.954C99.9442 102.553 99.9033 102.094 99.9033 101.577C99.9033 101.066 99.9476 100.604 100.036 100.189C100.131 99.7739 100.278 99.4202 100.475 99.1276C100.679 98.8283 100.937 98.6004 101.25 98.4439C101.563 98.2807 101.941 98.199 102.383 98.199ZM102.25 99.0868C102.039 99.0868 101.863 99.1446 101.72 99.2603C101.584 99.3691 101.475 99.529 101.393 99.7399C101.312 99.944 101.254 100.192 101.22 100.485C101.186 100.777 101.169 101.104 101.169 101.464C101.169 101.805 101.182 102.124 101.21 102.424C101.244 102.723 101.301 102.985 101.383 103.209C101.471 103.427 101.594 103.601 101.75 103.73C101.907 103.859 102.114 103.924 102.373 103.924C102.584 103.924 102.757 103.866 102.893 103.75C103.036 103.635 103.148 103.475 103.23 103.271C103.312 103.06 103.369 102.808 103.403 102.515C103.437 102.223 103.454 101.896 103.454 101.536C103.454 101.196 103.441 100.879 103.414 100.587C103.386 100.288 103.329 100.029 103.24 99.8113C103.152 99.5868 103.029 99.4099 102.873 99.2807C102.716 99.1514 102.509 99.0868 102.25 99.0868ZM106.582 103.322C106.82 103.322 107 103.393 107.123 103.536C107.252 103.679 107.317 103.862 107.317 104.087C107.317 104.305 107.252 104.488 107.123 104.638C106.993 104.788 106.803 104.862 106.551 104.862C106.313 104.862 106.129 104.788 106 104.638C105.871 104.488 105.806 104.311 105.806 104.107C105.806 103.89 105.871 103.706 106 103.556C106.129 103.4 106.323 103.322 106.582 103.322ZM109.077 103.73C109.234 103.784 109.401 103.828 109.577 103.862C109.754 103.896 109.931 103.913 110.108 103.913C110.401 103.913 110.639 103.859 110.822 103.75C111.013 103.641 111.163 103.495 111.271 103.311C111.38 103.121 111.455 102.903 111.496 102.658C111.543 102.407 111.571 102.141 111.577 101.862C111.523 101.93 111.452 102.002 111.363 102.077C111.282 102.152 111.183 102.22 111.067 102.281C110.958 102.342 110.833 102.393 110.69 102.434C110.547 102.475 110.387 102.495 110.21 102.495C109.611 102.495 109.142 102.311 108.802 101.944C108.462 101.57 108.292 101.046 108.292 100.373C108.292 100.066 108.339 99.7841 108.435 99.5256C108.537 99.2603 108.683 99.0324 108.873 98.8419C109.064 98.6446 109.299 98.4916 109.577 98.3827C109.863 98.2739 110.19 98.2194 110.557 98.2194C110.986 98.2194 111.343 98.3011 111.629 98.4643C111.921 98.6276 112.156 98.8555 112.333 99.148C112.509 99.4406 112.635 99.7909 112.71 100.199C112.785 100.6 112.822 101.043 112.822 101.526C112.822 101.961 112.771 102.379 112.669 102.781C112.567 103.175 112.404 103.522 112.18 103.822C111.962 104.121 111.68 104.362 111.333 104.546C110.986 104.723 110.564 104.811 110.067 104.811C109.816 104.811 109.577 104.784 109.353 104.73C109.135 104.675 108.938 104.611 108.761 104.536L109.077 103.73ZM110.435 101.617C110.571 101.617 110.703 101.597 110.833 101.556C110.962 101.515 111.077 101.468 111.18 101.413C111.282 101.359 111.367 101.308 111.435 101.26C111.509 101.206 111.557 101.172 111.577 101.158C111.557 100.451 111.462 99.9304 111.292 99.597C111.122 99.2569 110.846 99.0868 110.465 99.0868C110.118 99.0868 109.867 99.2059 109.71 99.444C109.554 99.6821 109.475 99.9882 109.475 100.362C109.475 100.539 109.492 100.706 109.526 100.862C109.56 101.012 109.615 101.145 109.69 101.26C109.765 101.369 109.863 101.458 109.986 101.526C110.108 101.587 110.258 101.617 110.435 101.617ZM114.419 103.73C114.575 103.784 114.742 103.828 114.919 103.862C115.096 103.896 115.273 103.913 115.449 103.913C115.742 103.913 115.98 103.859 116.164 103.75C116.354 103.641 116.504 103.495 116.613 103.311C116.722 103.121 116.796 102.903 116.837 102.658C116.885 102.407 116.912 102.141 116.919 101.862C116.864 101.93 116.793 102.002 116.705 102.077C116.623 102.152 116.524 102.22 116.409 102.281C116.3 102.342 116.174 102.393 116.031 102.434C115.888 102.475 115.728 102.495 115.551 102.495C114.953 102.495 114.483 102.311 114.143 101.944C113.803 101.57 113.633 101.046 113.633 100.373C113.633 100.066 113.681 99.7841 113.776 99.5256C113.878 99.2603 114.024 99.0324 114.215 98.8419C114.405 98.6446 114.64 98.4916 114.919 98.3827C115.205 98.2739 115.531 98.2194 115.898 98.2194C116.327 98.2194 116.684 98.3011 116.97 98.4643C117.262 98.6276 117.497 98.8555 117.674 99.148C117.851 99.4406 117.977 99.7909 118.052 100.199C118.126 100.6 118.164 101.043 118.164 101.526C118.164 101.961 118.113 102.379 118.011 102.781C117.909 103.175 117.745 103.522 117.521 103.822C117.303 104.121 117.021 104.362 116.674 104.546C116.327 104.723 115.905 104.811 115.409 104.811C115.157 104.811 114.919 104.784 114.694 104.73C114.477 104.675 114.279 104.611 114.102 104.536L114.419 103.73ZM115.776 101.617C115.912 101.617 116.045 101.597 116.174 101.556C116.303 101.515 116.419 101.468 116.521 101.413C116.623 101.359 116.708 101.308 116.776 101.26C116.851 101.206 116.898 101.172 116.919 101.158C116.898 100.451 116.803 99.9304 116.633 99.597C116.463 99.2569 116.188 99.0868 115.807 99.0868C115.46 99.0868 115.208 99.2059 115.051 99.444C114.895 99.6821 114.817 99.9882 114.817 100.362C114.817 100.539 114.834 100.706 114.868 100.862C114.902 101.012 114.956 101.145 115.031 101.26C115.106 101.369 115.205 101.458 115.327 101.526C115.449 101.587 115.599 101.617 115.776 101.617Z" fill="#042776"/>
<path d="M155.461 115.344H168.344C169.193 115.344 169.901 114.551 169.901 113.6V98.5362C169.901 97.5848 169.193 96.792 168.344 96.792H155.461C154.611 96.792 153.903 97.5848 153.903 98.5362V113.6C153.903 114.551 154.611 115.344 155.461 115.344Z" fill="#85B8ED"/>
<path d="M153.904 113.6H166.787C167.636 113.6 168.344 112.807 168.344 111.856V96.7921C168.344 95.8407 167.636 95.0479 166.787 95.0479H153.904C153.054 95.0479 152.346 95.8407 152.346 96.7921V111.856C152.346 112.807 153.054 113.6 153.904 113.6Z" fill="#EA5E5D"/>
<path d="M161.548 109.953H156.593V100.44H164.097V107.258" stroke="white" stroke-width="0.54666" stroke-miterlimit="10"/>
<path d="M158.434 102.658C158.747 102.658 159 102.374 159 102.024C159 101.674 158.747 101.39 158.434 101.39C158.121 101.39 157.868 101.674 157.868 102.024C157.868 102.374 158.121 102.658 158.434 102.658Z" fill="white"/>
<path d="M162.115 102.658C162.428 102.658 162.682 102.374 162.682 102.024C162.682 101.674 162.428 101.39 162.115 101.39C161.803 101.39 161.549 101.674 161.549 102.024C161.549 102.374 161.803 102.658 162.115 102.658Z" fill="white"/>
<path d="M158.434 101.708V99.4881C158.434 98.3781 159.284 97.4268 160.275 97.4268C161.266 97.4268 162.115 98.3781 162.115 99.4881V101.708" stroke="white" stroke-width="0.364406" stroke-miterlimit="10"/>
<path d="M164.097 109.953V107.892" stroke="white" stroke-width="0.54666" stroke-miterlimit="10"/>
<path d="M164.097 112.014V109.952" stroke="white" stroke-width="0.54666" stroke-miterlimit="10"/>
<path d="M164.096 109.952H162.256" stroke="white" stroke-width="0.54666" stroke-miterlimit="10"/>
<path d="M165.938 109.952H164.097" stroke="white" stroke-width="0.54666" stroke-miterlimit="10"/>
<path d="M111.432 21.3162C105.344 27.8172 106.335 35.2697 108.459 43.8321C110.583 52.3945 111.574 68.8851 111.574 68.8851H116.953C116.953 68.8851 116.387 50.6503 120.068 49.3818C123.749 47.9547 130.686 63.6525 132.102 66.1895C133.518 68.5679 136.349 69.0436 139.605 69.0436C142.861 69.0436 158.435 69.0436 158.435 69.0436C158.435 69.0436 163.956 64.2867 153.904 58.737C147.392 55.2487 146.259 54.2973 146.259 54.2973C146.259 54.2973 137.765 53.9801 128.704 43.9907C125.165 40.1852 120.917 29.5614 117.803 25.7559C114.405 21.3162 111.432 21.3162 111.432 21.3162Z" fill="#FFC854"/>
<path d="M78.4445 219.679H5.53383C4.11809 219.679 2.98547 218.41 2.98547 216.825V135.165C2.98547 133.579 4.11809 132.311 5.53383 132.311H78.4445C79.8602 132.311 80.9928 133.579 80.9928 135.165V216.825C80.9928 218.252 79.8602 219.679 78.4445 219.679Z" fill="#85B8ED"/>
<path d="M75.614 216.348H2.70333C1.28759 216.348 0.154968 215.08 0.154968 213.494V131.834C0.154968 130.248 1.28759 128.98 2.70333 128.98H75.614C77.0297 128.98 78.1623 130.248 78.1623 131.834V213.494C78.1623 215.08 77.0297 216.348 75.614 216.348Z" fill="#FFFFF8"/>
<path d="M2.43958 233.557C2.22189 233.536 2.0178 233.502 1.82732 233.455C1.64364 233.4 1.47356 233.342 1.3171 233.281C1.16743 233.22 1.03478 233.162 0.919126 233.108C0.810279 233.046 0.728644 232.999 0.674221 232.965L1.11301 232.067C1.16063 232.101 1.24227 232.148 1.35792 232.21C1.47356 232.271 1.60282 232.336 1.74568 232.404C1.89535 232.465 2.04841 232.519 2.20488 232.567C2.36135 232.614 2.50761 232.638 2.64367 232.638C3.32396 232.638 3.66411 232.356 3.66411 231.791C3.66411 231.655 3.6403 231.543 3.59268 231.455C3.55186 231.366 3.48723 231.291 3.39879 231.23C3.31716 231.162 3.21511 231.104 3.09266 231.057C2.97701 231.002 2.84435 230.948 2.69469 230.893C2.40897 230.785 2.15386 230.672 1.92936 230.557C1.71167 230.434 1.52459 230.298 1.36812 230.148C1.21165 229.999 1.0926 229.829 1.01097 229.638C0.929331 229.448 0.888513 229.23 0.888513 228.985C0.888513 228.795 0.925929 228.611 1.00076 228.434C1.07559 228.257 1.18104 228.101 1.3171 227.965C1.45316 227.822 1.61643 227.703 1.80691 227.608C1.99739 227.505 2.20828 227.434 2.43958 227.393V226.587H3.27634V227.373C3.45322 227.393 3.62329 227.424 3.78656 227.465C3.94983 227.505 4.09609 227.55 4.22535 227.597C4.3546 227.645 4.46345 227.693 4.55189 227.74C4.64713 227.781 4.71516 227.812 4.75598 227.832L4.3478 228.669C4.29338 228.642 4.21514 228.608 4.1131 228.567C4.01786 228.519 3.90901 228.472 3.78656 228.424C3.66411 228.376 3.53145 228.335 3.38859 228.301C3.24573 228.267 3.10287 228.25 2.96 228.25C2.7287 228.25 2.52122 228.298 2.33754 228.393C2.16066 228.482 2.07222 228.635 2.07222 228.852C2.07222 228.989 2.09603 229.111 2.14365 229.22C2.19808 229.322 2.27291 229.414 2.36815 229.495C2.47019 229.577 2.59265 229.655 2.73551 229.73C2.88517 229.798 3.05525 229.866 3.24573 229.934C3.49744 230.036 3.72193 230.142 3.91922 230.25C4.1165 230.359 4.28317 230.482 4.41923 230.618C4.55529 230.754 4.65733 230.91 4.72536 231.087C4.8002 231.264 4.83761 231.472 4.83761 231.71C4.83761 231.914 4.8036 232.111 4.73557 232.302C4.67434 232.492 4.5757 232.669 4.43964 232.832C4.31039 232.995 4.14711 233.138 3.94983 233.261C3.75935 233.376 3.53485 233.461 3.27634 233.516V234.516H2.43958V233.557ZM6.59843 232.649C6.75489 232.703 6.92157 232.747 7.09844 232.781C7.27532 232.815 7.45219 232.832 7.62907 232.832C7.9216 232.832 8.1597 232.778 8.34338 232.669C8.53386 232.56 8.68352 232.414 8.79237 232.23C8.90122 232.04 8.97605 231.822 9.01687 231.577C9.06449 231.325 9.0917 231.06 9.0985 230.781C9.04408 230.849 8.97265 230.921 8.88421 230.995C8.80258 231.07 8.70393 231.138 8.58828 231.199C8.47944 231.261 8.35358 231.312 8.21072 231.353C8.06786 231.393 7.90799 231.414 7.73111 231.414C7.13246 231.414 6.66305 231.23 6.32291 230.863C5.98276 230.489 5.81269 229.965 5.81269 229.291C5.81269 228.985 5.86031 228.703 5.95555 228.444C6.05759 228.179 6.20386 227.951 6.39434 227.761C6.58482 227.563 6.81952 227.41 7.09844 227.301C7.38417 227.193 7.71071 227.138 8.07806 227.138C8.50665 227.138 8.8638 227.22 9.14952 227.383C9.44205 227.546 9.67675 227.774 9.85363 228.067C10.0305 228.359 10.1564 228.71 10.2312 229.118C10.306 229.519 10.3434 229.961 10.3434 230.444C10.3434 230.88 10.2924 231.298 10.1904 231.699C10.0883 232.094 9.92506 232.441 9.70056 232.74C9.48287 233.04 9.20055 233.281 8.8536 233.465C8.50665 233.642 8.08487 233.73 7.58825 233.73C7.33654 233.73 7.09844 233.703 6.87395 233.649C6.65625 233.594 6.45897 233.529 6.28209 233.455L6.59843 232.649ZM7.95561 230.536C8.09167 230.536 8.22433 230.516 8.35358 230.475C8.48284 230.434 8.59849 230.387 8.70053 230.332C8.80258 230.278 8.88761 230.227 8.95564 230.179C9.03047 230.125 9.07809 230.091 9.0985 230.077C9.07809 229.369 8.98285 228.849 8.81278 228.516C8.64271 228.176 8.36719 228.006 7.98622 228.006C7.63927 228.006 7.38757 228.125 7.2311 228.363C7.07463 228.601 6.9964 228.907 6.9964 229.281C6.9964 229.458 7.01341 229.625 7.04742 229.781C7.08143 229.931 7.13586 230.063 7.21069 230.179C7.28552 230.288 7.38417 230.376 7.50662 230.444C7.62907 230.506 7.77873 230.536 7.95561 230.536ZM12.1847 232.24C12.4228 232.24 12.6031 232.312 12.7255 232.455C12.8548 232.597 12.9194 232.781 12.9194 233.006C12.9194 233.223 12.8548 233.407 12.7255 233.557C12.5963 233.706 12.4058 233.781 12.1541 233.781C11.916 233.781 11.7323 233.706 11.603 233.557C11.4738 233.407 11.4092 233.23 11.4092 233.026C11.4092 232.808 11.4738 232.625 11.603 232.475C11.7323 232.319 11.9262 232.24 12.1847 232.24ZM14.6802 232.649C14.8367 232.703 15.0034 232.747 15.1802 232.781C15.3571 232.815 15.534 232.832 15.7109 232.832C16.0034 232.832 16.2415 232.778 16.4252 232.669C16.6157 232.56 16.7653 232.414 16.8742 232.23C16.983 232.04 17.0578 231.822 17.0987 231.577C17.1463 231.325 17.1735 231.06 17.1803 230.781C17.1259 230.849 17.0544 230.921 16.966 230.995C16.8844 231.07 16.7857 231.138 16.6701 231.199C16.5612 231.261 16.4354 231.312 16.2925 231.353C16.1497 231.393 15.9898 231.414 15.8129 231.414C15.2143 231.414 14.7449 231.23 14.4047 230.863C14.0646 230.489 13.8945 229.965 13.8945 229.291C13.8945 228.985 13.9421 228.703 14.0373 228.444C14.1394 228.179 14.2857 227.951 14.4761 227.761C14.6666 227.563 14.9013 227.41 15.1802 227.301C15.466 227.193 15.7925 227.138 16.1599 227.138C16.5884 227.138 16.9456 227.22 17.2313 227.383C17.5238 227.546 17.7585 227.774 17.9354 228.067C18.1123 228.359 18.2382 228.71 18.313 229.118C18.3878 229.519 18.4252 229.961 18.4252 230.444C18.4252 230.88 18.3742 231.298 18.2722 231.699C18.1701 232.094 18.0069 232.441 17.7824 232.74C17.5647 233.04 17.2823 233.281 16.9354 233.465C16.5884 233.642 16.1667 233.73 15.6701 233.73C15.4183 233.73 15.1802 233.703 14.9557 233.649C14.738 233.594 14.5408 233.529 14.3639 233.455L14.6802 232.649ZM16.0374 230.536C16.1735 230.536 16.3061 230.516 16.4354 230.475C16.5646 230.434 16.6803 230.387 16.7823 230.332C16.8844 230.278 16.9694 230.227 17.0374 230.179C17.1123 230.125 17.1599 230.091 17.1803 230.077C17.1599 229.369 17.0646 228.849 16.8946 228.516C16.7245 228.176 16.449 228.006 16.068 228.006C15.7211 228.006 15.4694 228.125 15.3129 228.363C15.1564 228.601 15.0782 228.907 15.0782 229.281C15.0782 229.458 15.0952 229.625 15.1292 229.781C15.1632 229.931 15.2177 230.063 15.2925 230.179C15.3673 230.288 15.466 230.376 15.5884 230.444C15.7109 230.506 15.8605 230.536 16.0374 230.536ZM20.0216 232.649C20.1781 232.703 20.3447 232.747 20.5216 232.781C20.6985 232.815 20.8754 232.832 21.0522 232.832C21.3448 232.832 21.5829 232.778 21.7665 232.669C21.957 232.56 22.1067 232.414 22.2155 232.23C22.3244 232.04 22.3992 231.822 22.44 231.577C22.4876 231.325 22.5149 231.06 22.5217 230.781C22.4672 230.849 22.3958 230.921 22.3074 230.995C22.2257 231.07 22.1271 231.138 22.0114 231.199C21.9026 231.261 21.7767 231.312 21.6339 231.353C21.491 231.393 21.3311 231.414 21.1543 231.414C20.5556 231.414 20.0862 231.23 19.7461 230.863C19.4059 230.489 19.2358 229.965 19.2358 229.291C19.2358 228.985 19.2835 228.703 19.3787 228.444C19.4808 228.179 19.627 227.951 19.8175 227.761C20.008 227.563 20.2427 227.41 20.5216 227.301C20.8073 227.193 21.1339 227.138 21.5012 227.138C21.9298 227.138 22.287 227.22 22.5727 227.383C22.8652 227.546 23.0999 227.774 23.2768 228.067C23.4537 228.359 23.5795 228.71 23.6543 229.118C23.7292 229.519 23.7666 229.961 23.7666 230.444C23.7666 230.88 23.7156 231.298 23.6135 231.699C23.5115 232.094 23.3482 232.441 23.1237 232.74C22.906 233.04 22.6237 233.281 22.2768 233.465C21.9298 233.642 21.508 233.73 21.0114 233.73C20.7597 233.73 20.5216 233.703 20.2971 233.649C20.0794 233.594 19.8821 233.529 19.7052 233.455L20.0216 232.649ZM21.3788 230.536C21.5148 230.536 21.6475 230.516 21.7767 230.475C21.906 230.434 22.0216 230.387 22.1237 230.332C22.2257 230.278 22.3108 230.227 22.3788 230.179C22.4536 230.125 22.5013 230.091 22.5217 230.077C22.5013 229.369 22.406 228.849 22.2359 228.516C22.0659 228.176 21.7903 228.006 21.4094 228.006C21.0624 228.006 20.8107 228.125 20.6543 228.363C20.4978 228.601 20.4196 228.907 20.4196 229.281C20.4196 229.458 20.4366 229.625 20.4706 229.781C20.5046 229.931 20.559 230.063 20.6338 230.179C20.7087 230.288 20.8073 230.376 20.9298 230.444C21.0522 230.506 21.2019 230.536 21.3788 230.536Z" fill="#042776"/>
<path d="M65.4194 244.256H78.3026C79.1521 244.256 79.86 243.463 79.86 242.512V227.448C79.86 226.497 79.1521 225.704 78.3026 225.704H65.4194C64.5699 225.704 63.8621 226.497 63.8621 227.448V242.512C63.8621 243.463 64.5699 244.256 65.4194 244.256Z" fill="#85B8ED"/>
<path d="M63.8636 242.511H76.7468C77.5963 242.511 78.3041 241.718 78.3041 240.767V225.703C78.3041 224.752 77.5963 223.959 76.7468 223.959H63.8636C63.0141 223.959 62.3063 224.752 62.3063 225.703V240.767C62.3063 241.718 63.0141 242.511 63.8636 242.511Z" fill="#EA5E5D"/>
<path d="M71.5083 238.865H66.5532V229.352H74.0566V236.17" stroke="white" stroke-width="0.54666" stroke-miterlimit="10"/>
<path d="M67.969 230.936C67.969 230.619 68.2521 230.302 68.5353 230.302C68.8184 230.302 69.1016 230.619 69.1016 230.936C69.1016 231.254 68.8184 231.571 68.5353 231.571C68.1106 231.571 67.969 231.254 67.969 230.936Z" fill="white"/>
<path d="M71.5077 230.936C71.5077 230.619 71.7908 230.302 72.074 230.302C72.3571 230.302 72.6403 230.619 72.6403 230.936C72.6403 231.254 72.3571 231.571 72.074 231.571C71.7908 231.571 71.5077 231.254 71.5077 230.936Z" fill="white"/>
<path d="M68.394 230.619V228.399C68.394 227.289 69.2435 226.338 70.2345 226.338C71.2255 226.338 72.075 227.289 72.075 228.399V230.619" stroke="white" stroke-width="0.364406" stroke-miterlimit="10"/>
<path d="M74.0579 238.865V236.803" stroke="white" stroke-width="0.54666" stroke-miterlimit="10"/>
<path d="M74.0574 240.925V238.864" stroke="white" stroke-width="0.54666" stroke-miterlimit="10"/>
<path d="M74.0574 238.864H72.2169" stroke="white" stroke-width="0.54666" stroke-miterlimit="10"/>
<path d="M75.8978 238.864H74.0574" stroke="white" stroke-width="0.54666" stroke-miterlimit="10"/>
<path d="M21.3907 150.228C15.303 156.729 16.2941 164.181 18.4177 172.744C20.5413 181.306 21.5323 197.797 21.5323 197.797H26.9121C26.9121 197.797 26.3458 179.562 30.0267 178.293C33.7076 176.866 40.6448 192.564 42.0605 195.101C43.4763 197.48 46.3078 197.955 49.564 197.955C52.8202 197.955 68.3933 197.955 68.3933 197.955C68.3933 197.955 73.9147 193.198 63.8629 187.649C57.3505 184.16 56.2179 183.209 56.2179 183.209C56.2179 183.209 47.7235 182.892 38.6627 172.902C35.1234 169.097 30.8761 158.473 27.7615 154.668C24.3637 150.228 21.3907 150.228 21.3907 150.228Z" fill="#778FF9"/>
</svg>
